<svg width="45" height="32" viewBox="0 0 45 32" fill="none" xmlns="http://www.w3.org/2000/svg">
<path d="M14.1007 16.4722C14.2904 15.9634 14.4888 15.4158 14.6958 14.8293C14.9028 14.2429 15.1054 13.6392 15.3038 13.0182C15.5022 12.3886 15.6919 11.7548 15.873 11.1166C16.0627 10.4697 16.2309 9.83586 16.3775 9.21491L15.1227 5.10112C15.0364 4.81652 15.0408 4.57073 15.1356 4.36374C15.2391 4.14814 15.3987 3.97134 15.6143 3.83335C15.8299 3.68674 16.0843 3.57893 16.3775 3.50994C16.6794 3.44095 16.9942 3.40645 17.3219 3.40645C17.6065 3.40645 17.8609 3.4237 18.0851 3.45819C18.3094 3.48407 18.5034 3.53581 18.6673 3.61343C18.8398 3.69105 18.9821 3.80317 19.0942 3.94978C19.2063 4.08777 19.2968 4.26888 19.3658 4.49311L23.0786 16.4464C23.277 15.9117 23.4839 15.3338 23.6995 14.7129C23.9152 14.0919 24.1265 13.4537 24.3334 12.7983C24.5404 12.1429 24.7388 11.4788 24.9285 10.8061C25.1182 10.1334 25.2821 9.47364 25.4201 8.82681C25.5667 8.17999 25.6788 7.56336 25.7564 6.9769C25.8427 6.38183 25.8858 5.8385 25.8858 5.34691C25.8858 4.77771 25.847 4.30337 25.7694 3.92391C25.6918 3.54444 25.6012 3.22965 25.4977 2.97955C25.4028 2.72082 25.3166 2.50952 25.239 2.34566C25.1614 2.1818 25.1226 2.03087 25.1226 1.89289C25.1226 1.71178 25.17 1.56085 25.2649 1.44011C25.3597 1.31075 25.4805 1.20294 25.6271 1.1167C25.7737 1.03046 25.9332 0.970087 26.1057 0.93559C26.2782 0.892468 26.4421 0.870908 26.5973 0.870908C26.9423 0.870908 27.2355 0.922653 27.477 1.02614C27.7185 1.12964 27.8866 1.30643 27.9815 1.55654C28.0246 1.6859 28.0591 1.82389 28.085 1.9705C28.1109 2.10849 28.1281 2.24648 28.1367 2.38447C28.154 2.51383 28.1626 2.63889 28.1626 2.75963C28.1626 2.87174 28.1626 2.9623 28.1626 3.03129C28.1626 3.39351 28.1022 3.88941 27.9815 4.51898C27.8694 5.14856 27.7098 5.86006 27.5029 6.65349C27.3045 7.4383 27.076 8.28348 26.8172 9.18904C26.5585 10.0946 26.2868 11.0088 26.0022 11.9316C25.7263 12.8457 25.446 13.7427 25.1614 14.6223C24.8768 15.502 24.6051 16.317 24.3464 17.0673C24.0963 17.809 23.872 18.4645 23.6737 19.0337C23.4839 19.5942 23.3373 20.0125 23.2338 20.2885C23.1648 20.4955 23.07 20.6593 22.9492 20.7801C22.8371 20.9008 22.7034 20.9914 22.5482 21.0517C22.4016 21.1207 22.2377 21.1639 22.0566 21.1811C21.8841 21.1984 21.703 21.207 21.5133 21.207C21.1683 21.207 20.8837 21.1725 20.6595 21.1035C20.4439 21.0345 20.2714 20.9483 20.142 20.8448C20.0127 20.7413 19.9178 20.6292 19.8574 20.5084C19.7971 20.3877 19.7496 20.2799 19.7151 20.185L17.1408 11.7246C16.8562 12.6646 16.5673 13.5917 16.274 14.5059C15.9808 15.4115 15.7005 16.248 15.4332 17.0156C15.1744 17.7831 14.9416 18.4558 14.7346 19.0337C14.5276 19.6029 14.3681 20.0211 14.256 20.2885C14.1697 20.4955 14.0619 20.6593 13.9325 20.7801C13.8118 20.9008 13.6738 20.9914 13.5186 21.0517C13.372 21.1207 13.2124 21.1639 13.0399 21.1811C12.8674 21.1984 12.6906 21.207 12.5095 21.207C12.1646 21.207 11.88 21.1725 11.6557 21.1035C11.4401 21.0345 11.2676 20.9483 11.1383 20.8448C11.0089 20.7413 10.9097 20.6292 10.8407 20.5084C10.7804 20.3877 10.7329 20.2799 10.6984 20.185L6.09306 4.79065C6.00682 4.49742 5.91195 4.25163 5.80846 4.05327C5.71359 3.84629 5.59285 3.67811 5.44624 3.54875C5.30825 3.41939 5.13576 3.32452 4.92878 3.26415C4.73042 3.20378 4.48463 3.17359 4.1914 3.17359C3.94992 3.17359 3.66964 3.23396 3.35054 3.3547C3.03144 3.46682 2.72528 3.6393 2.43205 3.87216C2.14745 4.09639 1.90597 4.38099 1.70761 4.72597C1.50925 5.06231 1.41007 5.45472 1.41007 5.90318C1.41007 6.17916 1.44457 6.39908 1.51356 6.56294C1.59118 6.7268 1.67742 6.85185 1.77229 6.9381C1.86716 7.01571 1.96203 7.06746 2.05689 7.09333C2.16038 7.11058 2.23369 7.11921 2.27681 7.11921C2.49242 7.11921 2.66922 7.08471 2.80721 7.01571C2.94519 6.9381 3.07025 6.86048 3.18236 6.78286C3.29448 6.69662 3.39797 6.619 3.49284 6.55C3.59633 6.47238 3.71276 6.43357 3.84212 6.43357C3.94561 6.43357 4.05342 6.45945 4.16553 6.51119C4.28627 6.55431 4.39408 6.62762 4.48894 6.73111C4.59243 6.8346 4.67868 6.97259 4.74767 7.14508C4.81667 7.30894 4.85116 7.51161 4.85116 7.75309C4.85116 8.09806 4.78217 8.3956 4.64418 8.6457C4.51482 8.89581 4.34233 9.1071 4.12672 9.27959C3.91974 9.44345 3.67826 9.5685 3.40228 9.65475C3.13493 9.73237 2.86758 9.77117 2.60022 9.77117C2.18626 9.77117 1.81541 9.69787 1.48769 9.55126C1.16859 9.40464 0.896926 9.20628 0.672695 8.95618C0.457087 8.70607 0.288914 8.41716 0.168174 8.08944C0.0560579 7.75309 0 7.39518 0 7.01571C0 6.11879 0.172486 5.33829 0.517457 4.67422C0.862429 4.00152 1.31952 3.44095 1.88872 2.99248C2.45792 2.54402 3.10474 2.21198 3.82918 1.99638C4.55363 1.77215 5.29963 1.66003 6.06719 1.66003C6.92962 1.66003 7.63681 1.79371 8.18876 2.06106C8.74072 2.31979 9.18487 2.65614 9.52122 3.0701C9.86619 3.48407 10.1379 3.94978 10.3362 4.46724C10.5346 4.97607 10.7114 5.48059 10.8666 5.9808L14.1007 16.4722Z" fill="white"/>
<path d="M32.8566 15.6484C32.8566 15.9502 32.904 16.2003 32.9989 16.3987C33.0937 16.5884 33.2102 16.7523 33.3482 16.8903C33.4948 17.0197 33.65 17.1275 33.8139 17.2137C33.9777 17.2999 34.1287 17.3905 34.2666 17.4854C34.4133 17.5802 34.534 17.688 34.6289 17.8088C34.7237 17.9295 34.7712 18.0848 34.7712 18.2745C34.7712 18.5936 34.6591 18.8394 34.4348 19.0119C34.2106 19.1757 33.9519 19.2577 33.6586 19.2577C33.3827 19.2577 33.1239 19.1714 32.8824 18.9989C32.6496 18.8264 32.4426 18.5936 32.2615 18.3004C32.089 17.9985 31.951 17.6492 31.8475 17.2525C31.744 16.8472 31.6923 16.4203 31.6923 15.9718C31.6923 15.4198 31.7785 14.8938 31.951 14.3936C32.1235 13.8847 32.3779 13.4406 32.7143 13.0611C33.0506 12.673 33.4646 12.3668 33.9562 12.1426C34.4564 11.9184 35.0256 11.8063 35.6638 11.8063C36.095 11.8063 36.565 11.8796 37.0739 12.0262C37.5827 12.1642 38.0872 12.3884 38.5874 12.6989C39.0962 13.0094 39.5835 13.4104 40.0492 13.902C40.5236 14.3936 40.9418 14.9929 41.3041 15.7001C41.6749 16.4073 41.9681 17.2266 42.1837 18.1581C42.3994 19.0895 42.5072 20.146 42.5072 21.3275C42.5072 22.854 42.2786 24.2209 41.8215 25.4283C41.3731 26.6357 40.7607 27.662 39.9845 28.5072C39.217 29.3438 38.3244 29.9863 37.3067 30.4347C36.289 30.8746 35.211 31.0945 34.0726 31.0945C32.9428 31.0945 31.8648 30.9004 30.8385 30.5124C29.8122 30.1243 28.9066 29.5335 28.1218 28.7401C27.3457 27.938 26.7247 26.9247 26.259 25.7C25.8019 24.4667 25.5734 23.0092 25.5734 21.3275C25.5734 20.0252 25.7458 18.8394 26.0908 17.77C26.4444 16.7006 26.9144 15.7519 27.5009 14.924C28.096 14.096 28.7859 13.4018 29.5707 12.8412C30.3555 12.272 31.1878 11.8408 32.0675 11.5475L32.5073 12.1038C32.2572 12.3539 32.0243 12.6126 31.8087 12.88C31.5931 13.1473 31.3948 13.4535 31.2136 13.7985C31.0325 14.1348 30.8687 14.5272 30.7221 14.9757C30.5841 15.4155 30.4676 15.9373 30.3728 16.541C30.2779 17.1361 30.2046 17.826 30.1529 18.6108C30.1011 19.3956 30.0752 20.3012 30.0752 21.3275C30.0752 22.6556 30.1442 23.7897 30.2822 24.7298C30.4288 25.6698 30.6143 26.4589 30.8385 27.0971C31.0713 27.7267 31.3301 28.2312 31.6147 28.6107C31.9079 28.9815 32.2011 29.2618 32.4944 29.4516C32.7876 29.6413 33.0722 29.7664 33.3482 29.8267C33.6241 29.8785 33.8656 29.9043 34.0726 29.9043C34.2796 29.9043 34.5167 29.8785 34.7841 29.8267C35.0601 29.7664 35.3404 29.6413 35.625 29.4516C35.9182 29.2618 36.2071 28.9815 36.4917 28.6107C36.7763 28.2312 37.0264 27.7267 37.242 27.0971C37.4663 26.4589 37.6474 25.6698 37.7854 24.7298C37.9233 23.7897 37.9923 22.6556 37.9923 21.3275C37.9923 20.1632 37.9406 19.1499 37.8371 18.2874C37.7336 17.425 37.5956 16.6876 37.4231 16.0753C37.2593 15.463 37.0652 14.9628 36.841 14.5747C36.6254 14.178 36.3968 13.8675 36.1554 13.6432C35.9225 13.4104 35.6853 13.2508 35.4439 13.1646C35.211 13.0784 34.9954 13.0352 34.797 13.0352C34.4866 13.0352 34.2106 13.1085 33.9691 13.2552C33.7276 13.4018 33.525 13.6001 33.3611 13.8502C33.1972 14.0917 33.0722 14.372 32.9859 14.6911C32.8997 15.0016 32.8566 15.3207 32.8566 15.6484Z" fill="white"/>
</svg>
