<svg width="641" height="117" viewBox="0 0 641 117" fill="none" xmlns="http://www.w3.org/2000/svg">
<rect width="641" height="117" rx="40" fill="#292C34"/>
<path d="M241.74 68.7715C242.127 67.7344 242.531 66.6182 242.953 65.4229C243.375 64.2275 243.788 62.9971 244.192 61.7314C244.597 60.4482 244.983 59.1562 245.353 57.8555C245.739 56.5371 246.082 55.2451 246.381 53.9795L243.823 45.5947C243.647 45.0146 243.656 44.5137 243.85 44.0918C244.061 43.6523 244.386 43.292 244.825 43.0107C245.265 42.7119 245.783 42.4922 246.381 42.3516C246.996 42.2109 247.638 42.1406 248.306 42.1406C248.886 42.1406 249.404 42.1758 249.861 42.2461C250.318 42.2988 250.714 42.4043 251.048 42.5625C251.399 42.7207 251.689 42.9492 251.918 43.248C252.146 43.5293 252.331 43.8984 252.472 44.3555L260.039 68.7188C260.443 67.6289 260.865 66.4512 261.305 65.1855C261.744 63.9199 262.175 62.6191 262.597 61.2832C263.019 59.9473 263.423 58.5938 263.81 57.2227C264.196 55.8516 264.53 54.5068 264.812 53.1885C265.11 51.8701 265.339 50.6133 265.497 49.418C265.673 48.2051 265.761 47.0977 265.761 46.0957C265.761 44.9355 265.682 43.9688 265.523 43.1953C265.365 42.4219 265.181 41.7803 264.97 41.2705C264.776 40.7432 264.601 40.3125 264.442 39.9785C264.284 39.6445 264.205 39.3369 264.205 39.0557C264.205 38.6865 264.302 38.3789 264.495 38.1328C264.688 37.8691 264.935 37.6494 265.233 37.4736C265.532 37.2979 265.857 37.1748 266.209 37.1045C266.561 37.0166 266.895 36.9727 267.211 36.9727C267.914 36.9727 268.512 37.0781 269.004 37.2891C269.496 37.5 269.839 37.8604 270.032 38.3701C270.12 38.6338 270.19 38.915 270.243 39.2139C270.296 39.4951 270.331 39.7764 270.349 40.0576C270.384 40.3213 270.401 40.5762 270.401 40.8223C270.401 41.0508 270.401 41.2354 270.401 41.376C270.401 42.1143 270.278 43.125 270.032 44.4082C269.804 45.6914 269.479 47.1416 269.057 48.7588C268.652 50.3584 268.187 52.0811 267.659 53.9268C267.132 55.7725 266.578 57.6357 265.998 59.5166C265.436 61.3799 264.864 63.208 264.284 65.001C263.704 66.7939 263.15 68.4551 262.623 69.9844C262.113 71.4961 261.656 72.832 261.252 73.9922C260.865 75.1348 260.566 75.9873 260.355 76.5498C260.215 76.9717 260.021 77.3057 259.775 77.5518C259.547 77.7979 259.274 77.9824 258.958 78.1055C258.659 78.2461 258.325 78.334 257.956 78.3691C257.604 78.4043 257.235 78.4219 256.849 78.4219C256.146 78.4219 255.565 78.3516 255.108 78.2109C254.669 78.0703 254.317 77.8945 254.054 77.6836C253.79 77.4727 253.597 77.2441 253.474 76.998C253.351 76.752 253.254 76.5322 253.184 76.3389L247.937 59.0947C247.356 61.0107 246.768 62.9004 246.17 64.7637C245.572 66.6094 245.001 68.3145 244.456 69.8789C243.929 71.4434 243.454 72.8145 243.032 73.9922C242.61 75.1523 242.285 76.0049 242.057 76.5498C241.881 76.9717 241.661 77.3057 241.397 77.5518C241.151 77.7979 240.87 77.9824 240.554 78.1055C240.255 78.2461 239.93 78.334 239.578 78.3691C239.227 78.4043 238.866 78.4219 238.497 78.4219C237.794 78.4219 237.214 78.3516 236.757 78.2109C236.317 78.0703 235.966 77.8945 235.702 77.6836C235.438 77.4727 235.236 77.2441 235.096 76.998C234.973 76.752 234.876 76.5322 234.806 76.3389L225.419 44.9619C225.243 44.3643 225.05 43.8633 224.839 43.459C224.646 43.0371 224.399 42.6943 224.101 42.4307C223.819 42.167 223.468 41.9736 223.046 41.8506C222.642 41.7275 222.141 41.666 221.543 41.666C221.051 41.666 220.479 41.7891 219.829 42.0352C219.179 42.2637 218.555 42.6152 217.957 43.0898C217.377 43.5469 216.885 44.127 216.48 44.8301C216.076 45.5156 215.874 46.3154 215.874 47.2295C215.874 47.792 215.944 48.2402 216.085 48.5742C216.243 48.9082 216.419 49.1631 216.612 49.3389C216.806 49.4971 216.999 49.6025 217.192 49.6553C217.403 49.6904 217.553 49.708 217.641 49.708C218.08 49.708 218.44 49.6377 218.722 49.4971C219.003 49.3389 219.258 49.1807 219.486 49.0225C219.715 48.8467 219.926 48.6885 220.119 48.5479C220.33 48.3896 220.567 48.3105 220.831 48.3105C221.042 48.3105 221.262 48.3633 221.49 48.4688C221.736 48.5566 221.956 48.7061 222.149 48.917C222.36 49.1279 222.536 49.4092 222.677 49.7607C222.817 50.0947 222.888 50.5078 222.888 51C222.888 51.7031 222.747 52.3096 222.466 52.8193C222.202 53.3291 221.851 53.7598 221.411 54.1113C220.989 54.4453 220.497 54.7002 219.935 54.876C219.39 55.0342 218.845 55.1133 218.3 55.1133C217.456 55.1133 216.7 54.9639 216.032 54.665C215.382 54.3662 214.828 53.9619 214.371 53.4521C213.932 52.9424 213.589 52.3535 213.343 51.6855C213.114 51 213 50.2705 213 49.4971C213 47.6689 213.352 46.0781 214.055 44.7246C214.758 43.3535 215.689 42.2109 216.85 41.2969C218.01 40.3828 219.328 39.7061 220.805 39.2666C222.281 38.8096 223.802 38.5811 225.366 38.5811C227.124 38.5811 228.565 38.8535 229.69 39.3984C230.815 39.9258 231.721 40.6113 232.406 41.4551C233.109 42.2988 233.663 43.248 234.067 44.3027C234.472 45.3398 234.832 46.3682 235.148 47.3877L241.74 68.7715ZM284.534 64.3418C284.534 63.9023 284.394 63.5684 284.112 63.3398C283.831 63.1113 283.471 62.9971 283.031 62.9971C282.416 62.9971 281.827 63.1377 281.265 63.4189C280.72 63.7002 280.236 64.1133 279.814 64.6582C279.393 65.2031 279.059 65.8799 278.812 66.6885C278.566 67.4795 278.443 68.4023 278.443 69.457C278.443 70.4766 278.514 71.3203 278.654 71.9883C278.812 72.6562 279.015 73.1924 279.261 73.5967C279.524 73.9834 279.823 74.2559 280.157 74.4141C280.491 74.5723 280.843 74.6514 281.212 74.6514C281.669 74.6514 282.1 74.5371 282.504 74.3086C282.908 74.0625 283.26 73.7549 283.559 73.3857C283.857 73.0166 284.095 72.6035 284.271 72.1465C284.446 71.6895 284.534 71.2324 284.534 70.7754V64.3418ZM280.342 52.793C279.744 52.793 279.19 52.8633 278.681 53.0039C278.171 53.1445 277.731 53.3203 277.362 53.5312C276.993 53.7422 276.703 53.9795 276.492 54.2432C276.281 54.4893 276.176 54.7266 276.176 54.9551C276.176 55.2188 276.308 55.4121 276.571 55.5352C276.853 55.6406 277.16 55.7725 277.494 55.9307C277.828 56.0713 278.127 56.2822 278.391 56.5635C278.672 56.8271 278.812 57.2402 278.812 57.8027C278.812 58.1719 278.733 58.5146 278.575 58.8311C278.435 59.1299 278.232 59.4023 277.969 59.6484C277.723 59.877 277.424 60.0615 277.072 60.2021C276.738 60.3252 276.387 60.3867 276.018 60.3867C275.033 60.3867 274.233 60.0527 273.618 59.3848C273.021 58.7168 272.722 57.8291 272.722 56.7217C272.722 55.6494 273.003 54.7354 273.565 53.9795C274.128 53.2061 274.857 52.5732 275.754 52.0811C276.668 51.5889 277.696 51.2285 278.839 51C279.981 50.7539 281.124 50.6309 282.267 50.6309C283.638 50.6309 284.947 50.7803 286.195 51.0791C287.443 51.3779 288.542 51.8525 289.491 52.5029C290.458 53.1533 291.223 53.9795 291.785 54.9814C292.365 55.9834 292.655 57.1963 292.655 58.6201V73.5176C292.655 73.6758 292.664 73.8516 292.682 74.0449C292.699 74.2383 292.743 74.4141 292.813 74.5723C292.884 74.7305 292.989 74.8623 293.13 74.9678C293.271 75.0732 293.473 75.126 293.736 75.126C294.053 75.126 294.343 75.0117 294.606 74.7832C294.888 74.5371 295.134 74.291 295.345 74.0449L296.004 74.5986C295.74 74.9678 295.424 75.3721 295.055 75.8115C294.686 76.251 294.237 76.6641 293.71 77.0508C293.183 77.4375 292.567 77.7627 291.864 78.0264C291.161 78.29 290.361 78.4219 289.465 78.4219C288.357 78.4219 287.373 78.0967 286.512 77.4463C285.65 76.7783 285.088 75.7588 284.824 74.3877C284.262 75.1436 283.673 75.7764 283.058 76.2861C282.46 76.7959 281.845 77.209 281.212 77.5254C280.579 77.8418 279.938 78.0703 279.287 78.2109C278.654 78.3516 278.013 78.4219 277.362 78.4219C276.519 78.4219 275.701 78.29 274.91 78.0264C274.119 77.7627 273.407 77.3496 272.774 76.7871C272.159 76.207 271.658 75.46 271.271 74.5459C270.902 73.6318 270.718 72.5156 270.718 71.1973C270.718 69.5977 271.034 68.2881 271.667 67.2686C272.3 66.249 273.126 65.3965 274.146 64.7109C275.183 64.0078 276.352 63.4102 277.652 62.918C278.971 62.4258 280.315 61.9072 281.687 61.3623C282.706 60.958 283.444 60.3604 283.901 59.5693C284.376 58.7607 284.613 57.9346 284.613 57.0908C284.613 55.79 284.227 54.7529 283.453 53.9795C282.697 53.1885 281.66 52.793 280.342 52.793ZM308.106 52.8984V72.3838C308.106 73.3154 308.282 73.9658 308.634 74.335C308.985 74.6865 309.469 74.8623 310.084 74.8623C310.559 74.8623 310.98 74.7305 311.35 74.4668C311.719 74.2031 312.035 73.9043 312.299 73.5703C312.615 73.2012 312.888 72.7705 313.116 72.2783L313.934 72.6475C313.67 73.21 313.354 73.8252 312.984 74.4932C312.633 75.1611 312.158 75.7852 311.561 76.3652C310.963 76.9277 310.207 77.4023 309.293 77.7891C308.396 78.1758 307.263 78.3691 305.892 78.3691C305.118 78.3691 304.371 78.2549 303.65 78.0264C302.947 77.7979 302.314 77.4375 301.752 76.9453C301.207 76.4531 300.768 75.8379 300.434 75.0996C300.1 74.3613 299.933 73.4736 299.933 72.4365V52.8984H296.979V51C297.472 51 298.157 50.877 299.036 50.6309C299.915 50.3672 300.812 49.9365 301.726 49.3389C302.657 48.7412 303.519 47.9414 304.31 46.9395C305.101 45.9375 305.663 44.6982 305.997 43.2217H308.106V51H312.404C313.811 51 314.514 50.7627 314.514 50.2881C314.514 50.1123 314.426 49.998 314.25 49.9453C314.074 49.875 313.872 49.7959 313.644 49.708C313.433 49.6025 313.239 49.4619 313.063 49.2861C312.888 49.1104 312.8 48.8203 312.8 48.416C312.8 47.9238 312.949 47.5371 313.248 47.2559C313.564 46.9746 313.969 46.834 314.461 46.834C314.777 46.834 315.05 46.9043 315.278 47.0449C315.524 47.168 315.727 47.3438 315.885 47.5723C316.043 47.7832 316.157 48.0293 316.228 48.3105C316.315 48.5918 316.359 48.873 316.359 49.1543C316.359 50.2969 316.025 51.2109 315.357 51.8965C314.707 52.5645 313.652 52.8984 312.193 52.8984H308.106ZM333.973 59.7539C333.428 59.7539 332.971 59.6748 332.602 59.5166C332.232 59.3408 331.934 59.1123 331.705 58.8311C331.477 58.5498 331.31 58.2422 331.204 57.9082C331.099 57.5566 331.046 57.1963 331.046 56.8271C331.046 56.3525 331.072 55.8955 331.125 55.4561C331.195 55.0166 331.204 54.6211 331.151 54.2695C331.116 53.918 330.984 53.6367 330.756 53.4258C330.527 53.2148 330.123 53.1094 329.543 53.1094C328.928 53.1094 328.277 53.2852 327.592 53.6367C326.906 53.9883 326.282 54.542 325.72 55.2979C325.157 56.0537 324.691 57.0293 324.322 58.2246C323.953 59.4023 323.769 60.8262 323.769 62.4961C323.769 64.3418 323.936 66.0293 324.27 67.5586C324.621 69.0703 325.14 70.3623 325.825 71.4346C326.511 72.5068 327.363 73.3418 328.383 73.9395C329.402 74.5195 330.598 74.8096 331.969 74.8096C332.584 74.8096 333.164 74.7393 333.709 74.5986C334.271 74.458 334.799 74.2646 335.291 74.0186C335.783 73.7725 336.249 73.4912 336.688 73.1748C337.146 72.8408 337.585 72.4893 338.007 72.1201L338.666 72.7529C338.262 73.2979 337.743 73.8955 337.11 74.5459C336.478 75.1963 335.713 75.8115 334.816 76.3916C333.92 76.9541 332.874 77.4287 331.679 77.8154C330.483 78.1846 329.121 78.3691 327.592 78.3691C326.062 78.3691 324.568 78.0791 323.109 77.499C321.668 76.9014 320.385 76.04 319.26 74.915C318.135 73.79 317.229 72.4277 316.544 70.8281C315.876 69.2109 315.542 67.374 315.542 65.3174C315.542 63.7178 315.744 62.25 316.148 60.9141C316.553 59.5605 317.098 58.3389 317.783 57.249C318.486 56.1592 319.295 55.2012 320.209 54.375C321.141 53.5488 322.116 52.8633 323.136 52.3184C324.155 51.7559 325.192 51.334 326.247 51.0527C327.319 50.7715 328.348 50.6309 329.332 50.6309C330.633 50.6309 331.767 50.7803 332.733 51.0791C333.7 51.3779 334.5 51.7734 335.133 52.2656C335.783 52.7578 336.267 53.3291 336.583 53.9795C336.899 54.6123 337.058 55.2715 337.058 55.957C337.058 56.4668 336.987 56.959 336.847 57.4336C336.724 57.8906 336.53 58.2949 336.267 58.6465C336.021 58.9805 335.704 59.2529 335.317 59.4639C334.931 59.6572 334.482 59.7539 333.973 59.7539ZM350.373 55.6406C351.023 54.709 351.762 53.874 352.588 53.1357C352.922 52.8193 353.291 52.5117 353.695 52.2129C354.117 51.9141 354.557 51.6504 355.014 51.4219C355.488 51.1758 355.98 50.9824 356.49 50.8418C357.018 50.7012 357.554 50.6309 358.099 50.6309C359.276 50.6309 360.331 50.8594 361.263 51.3164C362.194 51.7734 362.977 52.5381 363.609 53.6104C364.242 54.6826 364.726 56.1064 365.06 57.8818C365.394 59.6396 365.561 61.8281 365.561 64.4473C365.561 66.9961 365.332 69.2109 364.875 71.0918C364.418 72.9727 363.82 74.5723 363.082 75.8906C362.344 77.209 361.509 78.2812 360.577 79.1074C359.646 79.9512 358.705 80.6104 357.756 81.085C356.807 81.5596 355.893 81.8848 355.014 82.0605C354.135 82.2539 353.379 82.3594 352.746 82.377L352.482 81.2959C353.273 81.1025 353.977 80.7422 354.592 80.2148C355.207 79.6875 355.726 78.8262 356.147 77.6309C356.569 76.418 356.886 74.792 357.097 72.7529C357.325 70.7139 357.439 68.0859 357.439 64.8691C357.439 62.6543 357.334 60.8877 357.123 59.5693C356.93 58.2334 356.666 57.2227 356.332 56.5371C356.016 55.834 355.646 55.377 355.225 55.166C354.82 54.9375 354.407 54.8232 353.985 54.8232C353.476 54.8232 353.027 54.9639 352.641 55.2451C352.254 55.5088 351.911 55.8164 351.612 56.168C351.331 56.5195 351.085 56.8711 350.874 57.2227C350.681 57.5742 350.514 57.8379 350.373 58.0137V75.627C350.373 75.8555 350.338 76.1367 350.268 76.4707C350.197 76.7871 350.021 77.0947 349.74 77.3936C349.477 77.6748 349.072 77.9121 348.527 78.1055C348 78.3164 347.271 78.4219 346.339 78.4219C345.407 78.4219 344.669 78.3076 344.124 78.0791C343.579 77.8682 343.166 77.6133 342.885 77.3145C342.621 77.0156 342.454 76.708 342.384 76.3916C342.313 76.0752 342.278 75.8203 342.278 75.627V41.6133C342.278 41.1035 342.155 40.6641 341.909 40.2949C341.681 39.9082 341.285 39.7148 340.723 39.7148C340.424 39.7148 340.16 39.7676 339.932 39.873C339.721 39.9609 339.492 40.1016 339.246 40.2949L338.719 39.6621C339.123 39.3281 339.571 39.0029 340.063 38.6865C340.556 38.3525 341.092 38.0625 341.672 37.8164C342.27 37.5703 342.902 37.3682 343.57 37.21C344.238 37.0518 344.941 36.9727 345.68 36.9727C346.822 36.9727 347.71 37.1309 348.343 37.4473C348.976 37.7461 349.441 38.124 349.74 38.5811C350.039 39.0205 350.215 39.4951 350.268 40.0049C350.338 40.4971 350.373 40.9365 350.373 41.3232V55.6406ZM384.729 46.9395C384.729 47.5547 384.826 48.0645 385.02 48.4688C385.213 48.8555 385.45 49.1895 385.731 49.4707C386.03 49.7344 386.347 49.9541 386.681 50.1299C387.015 50.3057 387.322 50.4902 387.604 50.6836C387.902 50.877 388.148 51.0967 388.342 51.3428C388.535 51.5889 388.632 51.9053 388.632 52.292C388.632 52.9424 388.403 53.4434 387.946 53.7949C387.489 54.1289 386.962 54.2959 386.364 54.2959C385.802 54.2959 385.274 54.1201 384.782 53.7686C384.308 53.417 383.886 52.9424 383.517 52.3447C383.165 51.7295 382.884 51.0176 382.673 50.209C382.462 49.3828 382.356 48.5127 382.356 47.5986C382.356 46.4736 382.532 45.4014 382.884 44.3818C383.235 43.3447 383.754 42.4395 384.439 41.666C385.125 40.875 385.969 40.251 386.971 39.7939C387.99 39.3369 389.15 39.1084 390.451 39.1084C391.33 39.1084 392.288 39.2578 393.325 39.5566C394.362 39.8379 395.391 40.2949 396.41 40.9277C397.447 41.5605 398.44 42.3779 399.39 43.3799C400.356 44.3818 401.209 45.6035 401.947 47.0449C402.703 48.4863 403.301 50.1562 403.74 52.0547C404.18 53.9531 404.399 56.1064 404.399 58.5146C404.399 61.626 403.934 64.4121 403.002 66.873C402.088 69.334 400.84 71.4258 399.258 73.1484C397.693 74.8535 395.874 76.1631 393.8 77.0771C391.726 77.9736 389.528 78.4219 387.208 78.4219C384.905 78.4219 382.708 78.0264 380.616 77.2354C378.524 76.4443 376.679 75.2402 375.079 73.623C373.497 71.9883 372.231 69.9229 371.282 67.4268C370.351 64.9131 369.885 61.9424 369.885 58.5146C369.885 55.8604 370.236 53.4434 370.939 51.2637C371.66 49.084 372.618 47.1504 373.813 45.4629C375.026 43.7754 376.433 42.3604 378.032 41.2178C379.632 40.0576 381.328 39.1787 383.121 38.5811L384.018 39.7148C383.508 40.2246 383.033 40.752 382.594 41.2969C382.154 41.8418 381.75 42.4658 381.381 43.1689C381.012 43.8545 380.678 44.6543 380.379 45.5684C380.098 46.4648 379.86 47.5283 379.667 48.7588C379.474 49.9717 379.324 51.3779 379.219 52.9775C379.113 54.5771 379.061 56.4229 379.061 58.5146C379.061 61.2217 379.201 63.5332 379.482 65.4492C379.781 67.3652 380.159 68.9736 380.616 70.2744C381.091 71.5576 381.618 72.5859 382.198 73.3594C382.796 74.1152 383.394 74.6865 383.991 75.0732C384.589 75.46 385.169 75.7148 385.731 75.8379C386.294 75.9434 386.786 75.9961 387.208 75.9961C387.63 75.9961 388.113 75.9434 388.658 75.8379C389.221 75.7148 389.792 75.46 390.372 75.0732C390.97 74.6865 391.559 74.1152 392.139 73.3594C392.719 72.5859 393.229 71.5576 393.668 70.2744C394.125 68.9736 394.494 67.3652 394.775 65.4492C395.057 63.5332 395.197 61.2217 395.197 58.5146C395.197 56.1416 395.092 54.0762 394.881 52.3184C394.67 50.5605 394.389 49.0576 394.037 47.8096C393.703 46.5615 393.308 45.542 392.851 44.751C392.411 43.9424 391.945 43.3096 391.453 42.8525C390.979 42.3779 390.495 42.0527 390.003 41.877C389.528 41.7012 389.089 41.6133 388.685 41.6133C388.052 41.6133 387.489 41.7627 386.997 42.0615C386.505 42.3604 386.092 42.7646 385.758 43.2744C385.424 43.7666 385.169 44.3379 384.993 44.9883C384.817 45.6211 384.729 46.2715 384.729 46.9395Z" fill="#F0C800"/>
</svg>
